<?xml version="1.0" standalone="no"?>
<!DOCTYPE svg PUBLIC "-//W3C//DTD SVG 1.0//EN" "http://www.w3.org/TR/2001/REC-SVG-20010904/DTD/svg10.dtd">
<svg xmlns="http://www.w3.org/2000/svg" xmlns:xlink="http://www.w3.org/1999/xlink" id="body_1" width="26" height="14">

<g transform="matrix(0.8965518 0 0 0.93333334 0 0)">
	<g transform="matrix(0.90625 0 0 0.882353 0 0)">
		<g transform="matrix(0.39534888 0 0 0.39534888 0.18604669 -0)">
			<g>
                <path d="M7.33429 1.40256C 6.03714 2.07684 5.36286 3.52899 5.75214 4.85184C 6.21929 6.40827 8.44929 9.59827 10.7579 12.0104C 12.8329 14.1633 12.8586 14.2147 12.3657 14.6818C 12.1064 14.9411 10.4464 16.3933 8.68286 17.924C 6.945 19.454 5.38929 20.9326 5.25929 21.1918C 5.10357 21.4511 5 22.1518 5 22.7483C 5 23.6304 5.15571 23.9933 5.88214 24.7197C 6.63429 25.4718 6.94571 25.6011 7.93143 25.6011C 9.25429 25.6011 9.20214 25.6276 14.7007 20.829L14.7007 20.829L18.2543 17.7426L20.07 18.5983C 22.1193 19.5318 25.75 20.8026 27.1507 21.0626C 27.6693 21.1661 28.1364 21.3218 28.1879 21.4261C 28.2657 21.504 27.7986 23.7861 27.1764 26.4576C 25.9314 31.904 25.9314 32.579 27.3321 33.7461C 28.6807 34.8868 31.015 34.4726 31.8193 32.9161C 32.0271 32.5268 32.675 29.9854 33.2979 27.2618L33.2979 27.2618L34.4393 22.3076L39.8857 22.1518C 42.8686 22.074 45.5657 21.9447 45.8514 21.8404C 46.3186 21.7104 46.6036 22.2297 48.575 26.639C 49.7943 29.3626 51.0393 31.8261 51.35 32.1376C 51.7129 32.4747 52.3871 32.734 53.2171 32.8118C 54.4357 32.9154 54.5914 32.864 55.4479 32.0083C 56.8743 30.5818 56.745 29.7261 54.41 24.5904C 53.3464 22.2561 52.4907 20.3111 52.5164 20.2847C 52.5686 20.259 53.2943 19.9733 54.1507 19.6361C 56.2779 18.8061 58.5079 17.6911 60.4271 16.4718C 61.335 15.9011 62.165 15.4861 62.2943 15.5383C 62.4243 15.564 64.2136 17.0947 66.2364 18.884C 68.2857 20.6733 70.2307 22.2818 70.5421 22.4368C 70.8536 22.6183 71.58 22.7483 72.15 22.7483C 74.1729 22.7483 75.5736 20.544 74.7693 18.6247C 74.6136 18.2097 72.7978 16.394 70.645 14.5268L70.645 14.5268L66.8071 11.1804L68.0521 9.4947C 69.7643 7.26399 70.8793 5.08541 70.8793 4.07399C 70.8793 1.63613 68.1557 0.235416 66.055 1.6097C 65.7178 1.81684 65.095 2.69899 64.6021 3.60685C 62.8386 6.92684 58.1179 11.1026 53.9421 13.0218C 49.0921 15.2526 44.7864 16.1083 38.4579 16.0826C 32 16.0826 27.4607 15.2004 22.74 13.0218C 18.6686 11.1547 14.4671 7.62756 12.5214 4.46327C 10.4986 1.16899 9.22786 0.416843 7.33429 1.40256z" stroke="none" fill="#FFFFFF" fill-rule="nonzero" />
                <path d="M5.51231 4.92242L5.51269 4.92371C 5.7586 5.74301 6.45341 6.95749 7.35958 8.25349C 8.27096 9.55695 9.41364 10.9675 10.5772 12.1833L10.5772 12.1833L10.5779 12.1839C 11.0974 12.7229 11.4853 13.127 11.7689 13.4386C 12.0554 13.7536 12.2224 13.9602 12.3104 14.1069C 12.3942 14.2467 12.3789 14.2862 12.377 14.2912C 12.3769 14.2913 12.3769 14.2915 12.3769 14.2915C 12.366 14.3245 12.3294 14.3718 12.1937 14.5004L12.1937 14.5004L12.1889 14.505L12.1889 14.5051C 11.9378 14.7562 10.2885 16.1993 8.51898 17.7352L8.51898 17.7352L8.51765 17.7363C 7.64682 18.503 6.82092 19.2574 6.19563 19.8535C 5.8832 20.1513 5.61931 20.411 5.42445 20.6138C 5.32718 20.7149 5.24527 20.8038 5.18247 20.8772C 5.12822 20.9406 5.07328 21.0093 5.04076 21.0702C 4.93839 21.2451 4.86949 21.5236 4.82442 21.8039C 4.77691 22.0995 4.75 22.437 4.75 22.7483C 4.75 23.2022 4.78943 23.5548 4.94022 23.8939C 5.08931 24.2293 5.33706 24.5282 5.70537 24.8965C 6.08412 25.2752 6.37859 25.5258 6.7208 25.6723C 7.06515 25.8197 7.43265 25.8511 7.93143 25.8511C 7.94315 25.8511 7.95481 25.8511 7.96642 25.8511C 8.27536 25.8512 8.54553 25.8513 8.83947 25.7715C 9.14686 25.6881 9.46376 25.523 9.89443 25.2187C 10.7175 24.6372 12.0266 23.4947 14.5797 21.2664C 14.6731 21.1849 14.7681 21.102 14.8648 21.0176C 14.8649 21.0175 14.865 21.0174 14.8651 21.0173L14.8651 21.0173L18.2952 18.0382L19.9634 18.8244L19.9663 18.8258L19.9664 18.8258C 22.023 19.7627 25.6726 21.0419 27.1033 21.308L27.1033 21.308L5.51231 4.92242zM5.51231 4.92242L27.997 21.5827C 27.9969 21.5826 27.9968 21.5825 27.9966 21.5824zM5.51231 4.92242C 5.08582 3.47313 5.82698 1.90433 7.21898 1.18074C 7.71278 0.923706 8.18379 0.770451 8.6492 0.751888C 9.11876 0.733162 9.56548 0.852264 10.0065 1.11264C 10.872 1.62366 11.7227 2.68479 12.7344 4.33232C 14.6494 7.44675 18.8088 10.944 22.8442 12.7946L22.8442 12.7946L22.8448 12.7949C 27.5256 14.955 32.0276 15.8326 38.4579 15.8326L38.4579 15.8326L38.4589 15.8326C 44.7575 15.8582 49.0261 15.0077 53.8377 12.7947C 55.8987 11.8474 58.1026 10.3387 60.0112 8.65227C 61.9217 6.96407 63.5189 5.11308 64.3813 3.48956L64.3813 3.48956L64.3824 3.48757C 64.6332 3.02559 64.9177 2.56892 65.1842 2.19931C 65.3173 2.01459 65.4479 1.84891 65.5693 1.71416C 65.6863 1.58422 65.8065 1.4697 65.9209 1.39867C 68.1743 -0.0726547 71.1293 1.42287 71.1293 4.07399C 71.1293 4.36687 71.0498 4.72282 70.9147 5.11536C 70.7784 5.51136 70.58 5.95975 70.3297 6.44223C 69.8293 7.40682 69.1146 8.5208 68.2519 9.64506C 68.2514 9.64568 68.2509 9.6463 68.2505 9.64692L68.2505 9.64692L67.1452 11.1435L70.8088 14.338C 71.8888 15.2746 72.8852 16.1993 73.6324 16.9432C 74.0058 17.3148 74.319 17.6435 74.55 17.9072C 74.6653 18.0389 74.7623 18.1568 74.8367 18.2574C 74.9056 18.3506 74.9682 18.4461 75.0013 18.5316C 75.8665 20.6031 74.3628 22.9983 72.15 22.9983C 71.848 22.9983 71.5083 22.964 71.2027 22.9062C 70.9073 22.8504 70.6166 22.7676 70.4228 22.6566C 70.3646 22.6265 70.2885 22.5753 70.2062 22.5163C 70.1155 22.4513 70.0031 22.3666 69.8728 22.2654C 69.6119 22.0626 69.2734 21.7894 68.8818 21.466C 68.0983 20.8191 67.098 19.9681 66.072 19.0723L66.072 19.0723L66.0708 19.0712C 65.0601 18.1772 64.1083 17.3484 63.3935 16.7402C 63.0359 16.4359 62.7389 16.188 62.5239 16.0151C 62.4161 15.9283 62.3311 15.8622 62.2704 15.8178C 62.2568 15.8078 62.245 15.7994 62.2348 15.7923C 62.2162 15.7976 62.1921 15.8055 62.1619 15.8165C 62.0642 15.8524 61.9293 15.9127 61.7645 15.9951C 61.4364 16.1591 61.0094 16.4011 60.5608 16.6831C 58.6273 17.9114 56.3831 19.0334 54.2421 19.8688C 53.8138 20.0374 53.4187 20.193 53.124 20.3096C 53.0108 20.3545 52.9126 20.3934 52.8333 20.4252C 52.8478 20.4605 52.8642 20.5001 52.8825 20.5438C 52.9748 20.7643 53.1119 21.0812 53.2836 21.4715C 53.6267 22.2515 54.106 23.3203 54.6375 24.4868L54.6375 24.4868L54.6376 24.4869C 55.7997 27.043 56.435 28.5776 56.587 29.6554C 56.6648 30.2066 56.6195 30.6551 56.4462 31.0667C 56.2755 31.4724 55.989 31.8207 55.6246 32.185L55.6246 32.185L55.6246 32.1851C 55.2038 32.6056 54.9125 32.8762 54.5526 33.0051C 54.194 33.1336 53.7935 33.1117 53.196 33.061L53.196 33.061L53.1938 33.0607C 52.3356 32.9802 51.599 32.7102 51.1798 32.3207L51.1798 32.3207L51.1797 32.3208L51.173 32.3141C 51.1138 32.2547 51.0481 32.1623 50.9815 32.0592C 50.9117 31.951 50.8302 31.814 50.7392 31.6531C 50.557 31.331 50.3322 30.9049 50.08 30.4055C 49.5755 29.4062 48.9578 28.1058 48.3468 26.7411L48.3468 26.7411L48.3468 26.741C 47.3587 24.5311 46.8003 23.3124 46.4315 22.6606C 46.2445 22.33 46.123 22.1769 46.04 22.1099C 46.0037 22.0807 45.9839 22.0757 45.9765 22.0743C 45.9689 22.0729 45.9547 22.0718 45.9245 22.0796C 45.8583 22.1014 45.7631 22.1163 45.6671 22.1285C 45.5549 22.1429 45.4102 22.1571 45.2388 22.1713C 44.8953 22.1996 44.4352 22.2281 43.8927 22.2557C 42.8072 22.3109 41.3852 22.3628 39.8925 22.4017C 39.8924 22.4018 39.8923 22.4018 39.8922 22.4018L39.8922 22.4018L34.6395 22.5519L33.5416 27.3176L5.51231 4.92242zM27.1033 21.308C 27.1039 21.3081 27.1045 21.3082 27.1051 21.3084L27.1051 21.3084L27.1507 21.0626L27.1017 21.3077C 27.1023 21.3078 27.1028 21.3079 27.1033 21.308zM27.1033 21.308C 27.3539 21.3581 27.5884 21.4201 27.7629 21.4804C 27.8387 21.5065 27.8985 21.5308 27.9415 21.5516zM27.9415 21.5516C 27.9421 21.5453 27.9427 21.5392 27.9432 21.5334C 27.9462 21.4994 27.9465 21.4811 27.9463 21.4742C 27.9462 21.4702 27.946 21.4773 27.9487 21.4904L27.9487 21.4904L27.9488 21.4906C 27.9492 21.4931 27.9526 21.5116 27.9643 21.5364C 27.9673 21.5428 27.9708 21.5496 27.975 21.5566C 27.9844 21.5708 27.993 21.5792 27.9966 21.5824zM27.9415 21.5516C 27.9486 21.555 27.9552 21.5583 27.9613 21.5615C 27.9695 21.5658 27.9761 21.5695 27.9813 21.5725L27.9813 21.5725L27.1764 26.4576C 25.9314 31.904 25.9314 32.579 27.3321 33.7461zM27.9415 21.5516C 27.9351 21.6171 27.9224 21.7101 27.9033 21.8301C 27.8615 22.0916 27.7918 22.4637 27.6996 22.9197C 27.5154 23.8308 27.2437 25.0666 26.9329 26.4009L26.9329 26.4009L26.9327 26.4018C 26.3131 29.1122 25.992 30.678 26.0122 31.7115C 26.0225 32.2396 26.1214 32.6469 26.3244 33.0043C 26.5245 33.3565 26.8151 33.6406 27.1714 33.9376zM27.9966 21.5824C 27.9952 21.5813 27.9926 21.5795 27.9887 21.577L27.9887 21.577L27.9966 21.5824zM27.1714 33.9376C 27.1712 33.9374 27.1709 33.9372 27.1707 33.937L27.1707 33.937L27.3321 33.7461zM27.1714 33.9376C 27.1716 33.9378 27.1719 33.938 27.1721 33.9382L27.1721 33.9382L27.3321 33.7461zM27.1714 33.9376C 27.9119 34.5635 28.9115 34.7551 29.8247 34.5885C 30.7378 34.4219 31.5963 33.8912 32.0407 33.0322C 32.1069 32.9074 32.1929 32.6498 32.2901 32.3226C 32.3909 31.9831 32.5117 31.5407 32.6449 31.0271C 32.9115 29.9997 33.2297 28.6812 33.5415 27.318L33.5415 27.318L27.3321 33.7461" stroke="#FFFFFF" stroke-width="0.5" fill="none" />
			</g>
		</g>
	</g>
</g>
</svg>