<svg width="307" height="357" viewBox="0 0 307 357" fill="none" xmlns="http://www.w3.org/2000/svg">
<mask id="mask0" style="mask-type:alpha" maskUnits="userSpaceOnUse" x="0" y="0" width="307" height="357">
<path d="M149.169 202.156C151.312 202.454 153.792 202.817 156.558 203.248C166.648 204.823 180.482 207.313 195.478 210.974C210.494 214.639 226.542 219.445 241.107 225.618C255.751 231.824 268.446 239.223 277.141 247.866L277.141 247.866C303.209 273.773 304.524 312.45 282.381 334.459C260.205 356.499 221.216 355.172 195.133 329.25C186.441 320.61 178.999 307.999 172.759 293.451C166.552 278.981 161.717 263.037 158.031 248.116C154.349 233.216 151.844 219.469 150.26 209.443C149.83 206.719 149.468 204.272 149.169 202.156Z" stroke="black" stroke-width="14.14"/>
<path d="M282.979 24.1742C259.88 0.660924 220.389 2.8286 194.657 29.0216C159.752 64.5523 150.006 159.536 150.006 159.536C150.006 159.536 243.313 149.613 278.218 114.081C303.948 87.8879 306.077 47.6874 282.979 24.1742Z" stroke="black" stroke-width="14.1357"/>
<path d="M217.26 92.8991C227.632 103.457 244.665 103.237 255.304 92.4068C265.944 81.5767 266.16 64.238 255.788 53.6797C245.416 43.1214 228.383 43.3418 217.744 54.172C207.105 65.0021 206.888 82.3408 217.26 92.8991Z" fill="black"/>
<path d="M7.07 296.556V60.4443C7.07 30.9181 30.8175 7.07 60 7.07C89.1824 7.07 112.93 30.9181 112.93 60.4443V296.556C112.93 326.083 89.1826 349.93 60 349.93C30.8159 349.93 7.07 326.084 7.07 296.556Z" stroke="black" stroke-width="14.14"/>
</mask>
<g mask="url(#mask0)">
<ellipse cx="151" cy="151" rx="227" ry="308" fill="url(#paint0_linear)"/>
</g>
<defs>
<linearGradient id="paint0_linear" x1="310.196" y1="5.62434" x2="5.41407" y2="512.59" gradientUnits="userSpaceOnUse">
<stop offset="0.00520833" stop-color="#88B0FF"/>
<stop offset="0.340381" stop-color="#BE35FF"/>
<stop offset="1" stop-color="#A431FF"/>
</linearGradient>
</defs>
</svg>
